<svg xmlns="http://www.w3.org/2000/svg" width="250" height="215" viewBox="0 0 250 215">
<!-- SVG created with Arrow, by QuiverAI (https://quiver.ai) -->
  <path d="m249.8 0h-249.6v214.4h249.6v-214.4z" fill="#152646"/>
  <path d="m19.75 35.52v10.35h-9.14v10.01h9.14v10.01h-9.14v9.68h9.14v5.34h-4.49v5.34h-4.65v8.01h-3.52v18.35h8.17v-4.68h4.49v8.68h-9.49v10.01h9.49v11.68h-9.14v10.01h9.14v9.35h-8.79v9.68h7.93v8.35h9.49v-8.35h5.69v8.01h4.83v1.35h20.23v9.01h9.49v-9.35h9.49v-9.02h10.18v8.35h9.49v-8.35h8.79v8.35h10.53v9.35h7.9v-8.68h6.79v8.68h5.34v3.01h9.49v3.34h9.49v4.68h9.49v3.68h8.79v6.35h20.58v-4.68h7.19v-3.01h8.53v-4.02h10.13v-4.67h13.14v-5.03h9.49v-18.02h-7.9v-8.01h7.9v-16.02h-8.2v-8.01h8.2v-27.37h-8.79v-12.69h8.49v-8.68h-9.49v-10.68h8.79v-9.35h-9.14v-9.68h9.79v-10.69h-8.79v-9.68h-9.79v9.02h-9.49v-9.02h-10.14v9.68h-10.13v-9.68h-9.84v9.35h-9.79v-9.01h-5.09v-6.02h-14.93v-13.69h-8.19v4.02h-10.44v-14.03h-4.19v4.68h-4.49v4.02h-10.44v-8.7h-8.79v8.68h-10.44v-4h-4.19v-4.68h-4.79v14.03h-10.74v-4.02h-9.79v13.69h-14.93v6.02h-14.64v-0.63h-19.3z" fill="#0F1C35"/>
  <path d="m29.24 35.52v9.67h9.49v10.69h-9.49v10.01h9.49v-1.34h6.34v-8.67h-5.09v-10.01h9.79v-10.35h-20.53z" fill="#0A0F22"/>
  <path d="m49.77 36.15v9.68h8.49v-4.68h4.19v-4.68h5.09v-6.01h-13.85v5.69h-3.92z" fill="#B74D26"/>
  <path d="m68.62 16.44v13.69h9.49v-4.35h10.44v-4.32h47.63v4.02h10.74v4.98h8.19v5.69h5.69v5.01h5.69v5.34h18.43v9.01h-5.09v9.69h9.09v5.68h-4.54v4.33h-4.55v4.68h-10.14v-4.01h-3.5v8.01h-16.68v5.02h-32.4v-2.68h-3.5v3.68h-35.5v-2.35h-9.49v-4.01h-10.44v-4.02h-13.11v-12.33h3.95v-10.01h4.67v-10.69h4.57v-5.34h4.19v-4.68h5.09v-6.02h8.49v-5.34h12.52v-18.69h5.39v4.68h4.19v4.32h10.44v-9h8.79v8.68h10.44v-4h4.49v-4.68h4.19v14.36h18.63v9.67h14.93v15.7h14.88v9.68h-8.19v9.36h12.19v5.68h5.09v7.01h6.05v2.35h13.14v5.02h4.19v19.35h-4.19v5.02h-5.09v4.68h-4.49v-16.36h-8.19v4.34h-6.81v-10.68h-4.49v3.01h-14.09v-6.69h-12.83v6.02h-10.59v4.34h-68.51v-8.01h-9.49v5.34h-5.69v10.35h5.69v5.34h5.69v5.34h3.8v4.01h-5.69v-3.68h-13.14v-8.68h-8.19v-5.02h4.19v-6.01h3.85v-8.68h-4.79v4.68h-5.69v4.34h-8.19v9.01h5.09v16.36h-5.69v-10.35h-5.09v-5.34h-3.5v-12.69h6.29v-5.34h2.3v-3.34h-10.74v4.68h-7.9v6.69h-4.49v10.35h-5.77v-12.02h4.3v-10.35h5.69v-6.02h4.19v-5.68h5.09v-4.34h8.49v4.34h3.5v-8.35h-8.2v0.67h4.71v-10.01h-9.49v-10.01h9.49v-0.68h-9.49v-9.67z" fill="#D86513"/>
  <path d="m184.9 35.81v10.01h9.84v0.34h-0.35v10.01h8.79v9.68h6.09v9.36h9.19v9.01h2.34v10.35h12.84v12.69h-9.49v-4.34h-5.69v4.34h-5.28v7.05h-9.58v-14.03h-5.1v-5.02h5.1v19.71h5.09v3.34h-8.49v-1.34h-4.19v-16.36h-7.41v-9.01h-4.49v3.01h-7.9v-6.02h13.44v-4.34h6.79v-10.01h-4.79v-9.02h-9.49v-9.68h6.34v-9.68h-3.6v-10.05z" fill="#0F1C35"/>
  <path d="m194 70.88v9.01h-20.57v5.34h16.23v15.7h5.76v-5.68h8.19v18.71h4.49v-6.02h5.09v-4.68h2.9v-18.02h-2.9v-5.02h-15.38v-4.34h-3.81v-5z" fill="#D86513"/>
  <path d="m136.5 65.86h-10.13v4.34h-4.19v10.01h4.79v4.68h14.63v-14.69h-5.1v-4.34z" fill="#0A0F22"/>
  <path d="m132 70.2h-5.34v5.01h5.34v-5.01z" fill="#FEFFFE"/>
  <path d="m104 65.86h-10.13v4.34h-4.49v9.01h4.49v5.68h14.33v-14.69h-4.2v-4.34z" fill="#0A0F22"/>
  <path d="m99.48 70.2h-5.34v5.01h5.34v-5.01z" fill="#FEFFFE"/>
  <path d="m166.2 83.89v6.02h3.85v4.71h-8.79v6.35h-16.68v-6.35h8.19v-4.34h5.69v-2.05h7.74v-4.34z" fill="#4B2928"/>
  <path d="m78.11 93.62h68.51v4.67h-68.51v-4.67z" fill="#893A21"/>
  <path d="m106.3 108h10.83v10.35h-4.19v-4.01h-6.64v-6.34z" fill="#1A3151"/>
  <path d="m50.04 118.3v9.35h9.24v-9.35h-9.24z" fill="#1A3151"/>
  <path d="m19.75 118.3v8.3h9.19v-8.3h-9.19z" fill="#1A3151"/>
  <path d="m28.94 126.6v8.35h9.49v-8.35h-9.49z" fill="#1A3151"/>
  <path d="m38.43 135v10.35h9.84v-0.34h10.44v-10.01h-20.28z" fill="#1A3151"/>
  <path d="m58.71 127.3v9.02h9.79v-9.02h-9.79z" fill="#1A3151"/>
  <path d="m59.13 145.7v10.01h9.49v-10.01h-9.49z" fill="#0A0F22"/>
  <path d="m39.21 155.7v14.36h19.5v-14.36h-19.5z" fill="#0A0F22"/>
  <path d="m58.71 167v9.35h9.49v-9.35h-9.49z" fill="#0A0F22"/>
  <path d="m68.62 167v9.35h9.19v-9.35h-9.19z" fill="#0A0F22"/>
  <path d="m78.11 157.3v9.01h9.49v-9.01h-9.49z" fill="#0A0F22"/>
  <path d="m87.6 153.3v9.35h9.84v-9.35h-9.84z" fill="#0A0F22"/>
  <path d="m101.1 155v11.35h7.44v-11.35h-7.44z" fill="#0A0F22"/>
  <path d="m108.6 158.7v9.01h10.83v-9.01h-10.83z" fill="#0A0F22"/>
  <path d="m117.1 148.3v8.68h7.9v-8.68h-7.9z" fill="#0A0F22"/>
  <path d="m120.3 131.3v5.34h5.69v-5.34h-5.69z" fill="#1A3151"/>
  <path d="m68.62 140.3v15.02h8.19v-8.01h-4.19v-7.01h-4z" fill="#0A0F22"/>
  <path d="m19.75 157.7v9.68h8.63v-9.68h-8.63z" fill="#0A0F22"/>
  <path d="m28.94 153.3v9.35h6.88v-9.35h-6.88z" fill="#0A0F22"/>
  <path d="m19.75 138.3v10.01h8.63v0.34h0.56v5.01h7.93v-15.36h-7.93v4.34h-9.19z" fill="#0A0F22"/>
  <path d="m203.6 35.81v9.68h9.84v-9.68h-9.84z" fill="#0A0F22"/>
  <path d="m224.5 35.81v9.68h9.19v-9.68h-9.19z" fill="#0A0F22"/>
  <path d="m233.3 45.49v10.01h9.19v-10.01h-9.19z" fill="#0A0F22"/>
  <path d="m224.2 55.17v10.01h9.14v-10.01h-9.14z" fill="#0A0F22"/>
  <path d="m213.7 65.18v10.02h9.49v-10.02h-9.49z" fill="#0A0F22"/>
  <path d="m223.9 75.21v10.35h9.49v-10.35h-9.49z" fill="#0A0F22"/>
  <path d="m233.7 85.89v8.68h9.19v-8.68h-9.19z" fill="#0A0F22"/>
  <path d="m203.2 45.82v10.35h9.49v-10.35h-9.49z" fill="#0A0F22"/>
  <path d="m214.6 45.49v10.01h8.59v-10.01h-8.59z" fill="#0A0F22"/>
  <path d="m234.1 65.86v8.68h8.24v-8.68h-8.24z" fill="#0A0F22"/>
  <path d="m194.4 46.16v10.01h8.79v-10.01h-8.79z" fill="#0A0F22"/>
  <path d="m194.8 56.51v9.35h8.44v-9.35h-8.44z" fill="#0A0F22"/>
  <path d="m203.2 65.86v9.35h9.49v-9.35h-9.49z" fill="#0A0F22"/>
  <path d="m131.8 167h-4.5v14.36h6.24v4.68h13.09v3.68h9.49v6.35h9.49v3.68h8.79v6.35h20.58v-4.68h7.19v-3.01h8.53v-4.68h10.13v-4.68h13.14v-4.68h9.49v-16.02h-8.79v-2.68h-8.49v-4.01h-14.13v-4h-11.43v-3.68h-9.49v-3.34h-13.84v3.34h-11.13v3.34h-11.14v4.01h-18.73v2.34h-4.49v3.33z" fill="#AA1E23"/>
  <path d="m136.3 164.3v10.35h9.49v5.02h15.48v5.01h5.09v5.01h14.14v5.34h8.79v-4.34h14.63v-5.68h10.44v-4.34h10.44v-5.02h9.49v-11.68h-4.79v3.68h-5.4v4.68h-14.33v5.01h-9.49v3.68h-10.44v5.02h-9.19v-5.02h-9.49v-4.34h-10.13v-4.01h-14.64v-5.35h-5.09v-3.02h-5z" fill="#51B551"/>
  <path d="m127.3 143.3v14.35h5.1v4.68h8.89v4.01h16.68v4.34h13.83v3.68h17.48v-4.68h14.63v-4.34h5.39v-5.68h14.33v-3.34h11.44v-2.68h8.39v-11.01h-8.79v-2.34h-9.19v-2.34h-14.43v-3.34h-14.93v-3.34h-8.19v-2h-12.79v2h-10.08v4.34h-10.74v4.01h-17.53v2.68l-9.49 1z" fill="#AA1E23"/>
  <path d="m136.3 138.6v14.02h9.49v4.68h15.48v5.34h5.09v4.01h13.54v4.34h9.79v-4.68h14.63v-4.01h4.79v-4.68h14.63v-4.01h10.44v-15.01h-3.94v4.34h-5.4v5.34h-14.93v5.01h-9.49v4.01h-10.43v4.34h-8.79v-4.34h-10.99v-4.02h-9.14v-4.68h-14.93v-5.01h-4.79v-4.99h-5.05z" fill="#51B551"/>
  <path d="m127.3 113.3h9.49v-5.01h10.44v-3.01h13.98v-5.02h8.89v-5.34h14.04v6.35h10.74v5.01h4.19v12.69h-4.49v4.34h9.49v3.68h9.19v-4.01h10.44v-4.01h4.49v-5.34h-7.9v-4.01h9.49v-0.34h4.79v4.34h8.89v16.36h-5.69v5.34h-9.84v4.67h-14.63v4.34h-9.19v4.34h-29.42v-5.01h-9.49v-5.02h-10.43v-4.68h-17.53v-4.34h-9.94v-16.32z" fill="#E72D2A"/>
  <path d="m148 113.6h18.73l3.35 3.01v4.02l-3.35 2.68h-17.48l-2.89-3.01v-4.02l1.64-2.68z" fill="#51D856"/>
  <path d="m174.7 101.6h5.1v-1.67h8.49v4.34h5.39v3.68h-8.19v5.34h-4.19v-5.34h-11.14v-3.34h4.54v-3.01z" fill="#51D856"/>
  <path d="m170.1 128.3h19.53v-2h4.79v3.68h-4.19v4.98h-4.19v3.68h-6.2v-5.34h-9.74v-5z" fill="#51D856"/>
  <path d="m234.7 123v6.35h-12.54v4.01h-8.87v5.02h-12.54v5.33h-7.19v4.02h-18.39v-5.02h-10.08v-5.01h-10.74v-4.69h-17.08v-7.68h-9.94v9.68h9.49v3.34h14.93v4.34h14.44v4.01h11.13v2.68h17.83v-3.36h8.79v-4.34h12.24v-4.68h11.43v-4.34h11.04v-3.34h4.84v-6.32h-8.79z" fill="#C1272D"/>
  <path d="m89.44 108.6h14.43v5.02h5.39v4.68h5.4v4.01h2.44v10.68h-4.19v-4.68h-16.68v-5.01h-3.49v4.34h-8.49v-5.34h-4.49v-5.02h4.79v-5.01h4.89v-3.67z" fill="#D86513"/>
  <path d="m73.26 121h5.4v5.34h4.49v7.01h9.49v4.34h4.79v4.01h14.63v3.68h-4.49v3.01h-22.62v-5.34h-4.79v-4.35h-6.9v-17.7z" fill="#953A21"/>
  <path d="m97.43 127.7h15.48v9.68h-14.08v-4.01h-3.89v-5.67h2.49z" fill="#0A0F22"/>
  <path d="m73.71 91.27h4.4v9.01h-5.69v-4.68h1.29v-4.33z" fill="#0A0F22"/>
  <path d="m73.71 104.6h2.9v3.34h-2.9v-3.34z" fill="#0A0F22"/>
</svg>